<?xml version="1.0" standalone="no"?>
<!DOCTYPE svg PUBLIC "-//W3C//DTD SVG 20010904//EN"
 "http://www.w3.org/TR/2001/REC-SVG-20010904/DTD/svg10.dtd">
<svg version="1.0" xmlns="http://www.w3.org/2000/svg"
 width="2667.000000pt" height="1177.000000pt" viewBox="0 0 2667.000000 1177.000000"
 preserveAspectRatio="xMidYMid meet">

<g transform="translate(0.000000,1177.000000) scale(0.100000,-0.100000)"
fill="#000000" stroke="none">
<path d="M2298 11349 c-88 -13 -153 -52 -183 -110 -8 -14 -62 -239 -120 -500
-58 -260 -107 -474 -108 -475 -1 0 -47 -13 -102 -28 -137 -38 -434 -138 -587
-197 l-126 -50 -4 -567 c-2 -312 0 -584 3 -606 4 -21 13 -42 20 -47 8 -5 78
-9 156 -9 419 0 1117 -58 1516 -125 770 -131 1422 -382 2173 -838 l91 -55 -4
47 c-17 173 -91 438 -173 620 -78 172 -79 174 -256 294 -726 493 -1409 743
-2247 821 -75 7 -139 15 -142 18 -6 6 85 27 225 53 260 46 630 66 890 46 899
-68 1716 -437 2359 -1065 430 -421 726 -876 931 -1431 206 -559 270 -1197 180
-1797 -37 -246 -138 -644 -166 -655 -7 -2 -62 9 -122 26 -285 79 -527 83 -721
11 -71 -27 -167 -79 -230 -126 l-49 -37 18 -53 c67 -194 83 -523 35 -732 -68
-294 -208 -495 -415 -591 -87 -40 -165 -60 -275 -67 l-92 -7 -6 -86 c-16 -231
-121 -448 -315 -652 -112 -118 -204 -186 -347 -257 -250 -125 -536 -209 -828
-243 -133 -15 -458 -6 -557 16 -93 21 -180 50 -244 82 -47 24 -52 24 -142 14
-347 -41 -697 32 -1123 235 -74 35 -136 64 -138 64 -1 0 -3 -106 -3 -235 l0
-235 42 -27 c140 -88 421 -199 657 -259 88 -22 115 -34 122 -49 4 -11 51 -216
104 -455 53 -239 101 -447 107 -463 17 -43 100 -112 155 -128 39 -11 188 -14
813 -14 l765 0 47 23 c58 29 123 98 135 143 5 19 52 238 104 486 l94 453 55
15 c67 19 351 113 436 145 l61 23 362 -319 c199 -175 376 -324 394 -331 55
-20 148 -16 198 10 24 12 175 119 334 237 160 119 409 303 553 410 158 117
276 211 293 235 32 43 59 121 59 169 0 17 -83 212 -201 472 l-200 442 93 124
c52 68 127 175 168 237 l75 113 50 -6 c247 -28 934 -87 961 -81 45 8 109 66
138 124 30 60 434 1343 442 1404 9 65 -12 132 -55 176 -23 24 -189 124 -448
270 l-413 233 0 233 c0 128 -3 259 -6 291 -6 59 -6 59 27 78 213 121 820 485
841 504 37 34 53 105 39 174 -6 29 -114 361 -239 738 -221 667 -228 686 -268
726 -70 71 -62 71 -618 8 -269 -30 -490 -54 -491 -52 -2 2 -43 59 -91 128 -48
69 -121 168 -163 220 -42 52 -79 100 -83 106 -5 7 44 132 113 291 278 641 269
618 269 673 0 68 -19 109 -71 153 -24 20 -195 144 -379 275 -184 131 -429 305
-545 387 -296 211 -338 231 -432 204 -39 -11 -96 -58 -387 -322 -188 -171
-352 -320 -366 -333 l-26 -24 -154 54 c-85 30 -209 68 -275 86 -66 18 -121 33
-122 34 -1 1 -49 213 -107 473 -58 259 -109 479 -112 489 -15 41 -59 87 -103
108 -45 21 -54 21 -756 22 -390 1 -736 -2 -767 -7z"/>
<path d="M1069 8588 c-15 -28 -15 -140 0 -176 12 -28 13 -29 149 -41 679 -60
1251 -163 1726 -310 l155 -48 16 51 c22 67 58 129 112 193 24 28 40 54 36 56
-19 12 -313 91 -453 122 -408 91 -809 140 -1360 165 -333 15 -367 14 -381 -12z"/>
<path d="M5041 8298 c44 -105 94 -286 115 -413 25 -149 25 -414 0 -545 -32
-175 -42 -150 71 -186 382 -123 677 -291 799 -456 54 -74 75 -138 76 -232 0
-89 -13 -135 -57 -196 -43 -60 -50 -84 -29 -105 50 -49 228 85 306 231 62 117
89 227 95 389 8 234 -33 421 -142 640 -169 339 -436 587 -850 786 -107 51
-385 159 -410 159 -2 0 10 -33 26 -72z"/>
<path d="M1070 8224 c-23 -60 -4 -254 25 -254 26 0 477 -80 680 -121 375 -75
653 -143 1058 -257 15 -4 17 0 11 22 -9 38 -10 201 -1 268 l8 57 -68 20 c-207
62 -548 133 -888 185 -245 38 -755 106 -793 106 -15 0 -26 -8 -32 -26z"/>
<path d="M3559 8226 c-181 -49 -302 -236 -269 -418 23 -125 91 -217 200 -271
81 -41 158 -53 237 -37 261 53 384 348 241 573 -82 128 -258 194 -409 153z
m301 -161 c42 -21 60 -53 60 -103 0 -37 -6 -50 -34 -78 -26 -26 -42 -34 -70
-34 -69 0 -126 50 -126 110 0 38 30 88 63 104 40 20 70 20 107 1z"/>
<path d="M4227 7866 c-6 -98 -33 -188 -81 -271 -65 -110 -209 -215 -342 -250
-32 -8 -100 -15 -151 -15 -260 0 -482 170 -548 420 -8 30 -15 69 -15 85 0 28
-4 32 -46 43 -26 7 -49 10 -53 6 -14 -14 -5 -260 13 -324 41 -154 143 -313
258 -407 99 -80 128 -94 167 -83 136 39 346 60 593 60 310 0 562 -35 784 -109
l112 -37 35 130 c48 178 65 265 73 376 l6 95 -88 47 c-112 58 -325 157 -543
252 l-168 73 -6 -91z"/>
<path d="M18612 7781 c-34 -44 -62 -82 -62 -85 0 -4 22 -6 49 -6 47 0 51 2 90
51 42 53 42 57 8 102 -8 9 -16 17 -19 17 -3 0 -32 -36 -66 -79z"/>
<path d="M1076 7778 c-22 -35 -29 -117 -17 -201 18 -128 -12 -110 374 -230
736 -229 1097 -322 1407 -363 127 -16 303 -15 322 4 5 5 -18 41 -57 88 -87
103 -135 178 -182 280 l-38 83 -285 70 c-157 38 -389 90 -516 115 -254 50
-954 176 -978 176 -9 0 -22 -10 -30 -22z"/>
<path d="M14831 7580 c-288 -60 -479 -413 -432 -800 52 -423 372 -675 679
-535 31 14 74 38 95 52 l37 26 0 158 0 159 -57 -46 c-84 -69 -153 -97 -238
-98 -59 -1 -77 3 -117 27 -57 33 -109 99 -140 175 -31 79 -33 297 -4 385 59
179 201 263 351 206 46 -17 76 -39 133 -94 l72 -73 0 174 0 174 -61 40 c-99
64 -219 90 -318 70z"/>
<path d="M19700 7579 c-85 -16 -182 -73 -252 -147 -116 -124 -169 -248 -188
-447 -23 -253 47 -492 190 -636 109 -111 247 -159 394 -138 83 11 143 32 239
81 l77 40 0 314 0 314 -210 0 -210 0 0 -125 0 -125 95 0 95 0 0 -100 c0 -115
1 -114 -104 -126 -193 -23 -335 156 -336 421 0 146 45 262 133 341 119 107
276 92 405 -37 35 -36 53 -48 56 -38 2 8 9 75 14 149 12 157 12 156 -87 209
-100 53 -207 70 -311 50z"/>
<path d="M21180 7576 c-102 -23 -185 -74 -260 -160 -73 -83 -135 -224 -159
-360 -15 -84 -14 -251 3 -339 63 -329 302 -547 555 -506 77 12 156 46 212 90
l39 31 0 160 0 161 -50 -47 c-74 -69 -168 -111 -250 -111 -78 1 -129 24 -184
86 -108 119 -136 345 -65 534 30 80 114 166 182 184 99 28 204 -12 305 -117
l62 -65 0 172 0 172 -27 24 c-43 37 -142 82 -207 94 -72 13 -85 13 -156 -3z"/>
<path d="M16743 7561 c-154 -57 -274 -204 -339 -416 -25 -82 -28 -104 -27
-250 0 -145 2 -168 27 -250 40 -131 90 -219 171 -301 79 -80 149 -118 240
-132 309 -48 565 264 565 687 -1 300 -138 559 -346 653 -70 31 -218 36 -291 9z
m191 -272 c49 -14 121 -80 152 -141 52 -103 69 -269 39 -396 -76 -323 -379
-350 -487 -43 -24 68 -34 217 -20 291 18 95 51 167 100 221 66 71 131 92 216
68z"/>
<path d="M18499 7556 c-83 -34 -122 -60 -181 -125 -66 -71 -118 -168 -154
-286 -24 -81 -27 -105 -27 -245 0 -180 16 -258 84 -398 50 -103 154 -215 239
-255 250 -119 522 30 631 345 40 118 52 212 46 353 -6 136 -30 232 -82 340
-67 138 -181 245 -298 280 -77 23 -191 19 -258 -9z m216 -275 c115 -52 185
-198 185 -386 0 -143 -36 -252 -109 -328 -50 -53 -87 -70 -151 -71 -123 0
-214 95 -255 265 -30 128 -8 306 49 403 69 116 181 163 281 117z"/>
<path d="M22022 7562 c-159 -57 -281 -208 -344 -427 -20 -69 -23 -103 -23
-240 0 -137 3 -171 23 -240 71 -246 234 -419 418 -445 135 -18 250 25 360 134
82 82 140 189 175 321 29 109 32 325 6 440 -45 196 -162 362 -305 433 -68 33
-85 37 -166 40 -69 2 -104 -2 -144 -16z m192 -273 c52 -14 117 -76 149 -143
123 -251 33 -602 -166 -647 -71 -15 -126 0 -184 54 -82 75 -123 190 -123 342
0 188 70 334 185 386 46 21 84 23 139 8z"/>
<path d="M12630 7410 l0 -130 160 0 160 0 0 -515 0 -515 115 0 115 0 0 515 0
515 155 0 155 0 0 130 0 130 -430 0 -430 0 0 -130z"/>
<path d="M13650 6895 l0 -645 305 0 305 0 0 130 0 130 -192 2 -193 3 0 130 0
130 113 3 112 3 0 129 0 130 -115 0 -115 0 0 120 0 120 195 0 195 0 0 130 0
130 -305 0 -305 0 0 -645z"/>
<path d="M15380 6896 l0 -646 105 0 105 0 0 351 c0 220 4 349 10 347 5 -1 137
-158 293 -348 254 -310 286 -345 315 -348 l32 -3 0 645 0 646 -105 0 -105 0 0
-356 c0 -228 -4 -354 -10 -352 -5 2 -139 161 -296 353 -242 296 -291 350 -315
353 l-29 3 0 -645z"/>
<path d="M17510 6895 l0 -645 310 0 310 0 0 135 0 135 -195 0 -195 0 0 510 0
510 -115 0 -115 0 0 -645z"/>
<path d="M20370 6895 l0 -645 115 0 115 0 0 645 0 645 -115 0 -115 0 0 -645z"/>
<path d="M1091 7241 c-34 -34 -46 -97 -45 -246 1 -197 36 -405 68 -405 8 0 97
7 198 15 387 31 665 46 975 52 l322 6 48 40 c26 22 87 66 134 96 l87 57 -134
18 c-302 40 -724 137 -1327 305 -159 45 -293 81 -298 81 -5 0 -18 -9 -28 -19z"/>
<path d="M5039 6882 c-39 -147 -47 -167 -64 -165 -51 4 -193 -20 -264 -46 -70
-26 -199 -97 -190 -105 18 -17 221 -61 299 -66 72 -4 95 -8 95 -19 0 -18 -63
-51 -98 -51 -24 0 -27 -3 -21 -25 8 -31 -1 -69 -20 -88 -13 -12 -32 -9 -146
23 -73 21 -137 43 -143 49 -12 12 -8 14 68 31 87 19 85 25 -20 60 -116 39
-114 39 -220 -61 -125 -119 -205 -258 -247 -427 -30 -120 -29 -295 0 -405 71
-261 275 -454 538 -508 60 -12 63 -12 91 12 17 14 58 35 92 48 79 29 92 52 68
121 -22 63 -22 70 8 70 28 0 95 55 95 78 0 8 -6 23 -14 31 -11 13 -12 29 -4
83 12 77 1 72 158 83 160 11 194 49 187 210 -3 86 -10 119 -50 236 -25 75 -77
208 -116 296 -39 87 -71 164 -71 171 0 6 19 22 43 34 32 17 61 23 125 24 97 3
106 8 146 90 52 106 65 235 27 267 -9 8 -82 37 -162 64 l-146 51 -44 -166z"/>
<path d="M3685 6978 c-126 -12 -362 -61 -475 -98 -108 -35 -313 -133 -381
-182 l-45 -33 195 -1 c313 -2 550 -38 682 -104 116 -59 216 -180 234 -285 11
-61 15 -61 46 6 70 148 213 310 351 400 140 90 313 153 463 167 l80 8 -95 31
c-115 38 -316 78 -464 92 -128 13 -462 12 -591 -1z"/>
<path d="M1945 6529 c-288 -13 -824 -61 -847 -76 -57 -34 -64 -308 -10 -356
14 -12 89 -16 452 -20 239 -3 489 -11 555 -16 251 -23 507 -54 710 -87 182
-30 247 -42 362 -69 22 -5 22 -4 -7 41 -105 167 -81 387 59 517 l48 45 -66 6
c-254 24 -889 31 -1256 15z"/>
<path d="M3417 6426 c-88 -33 -155 -105 -178 -190 -58 -213 183 -407 379 -307
193 98 201 370 14 474 -63 35 -156 45 -215 23z m152 -134 c115 -62 79 -245
-51 -259 -50 -6 -89 10 -128 52 -21 22 -25 37 -25 85 0 51 4 63 30 90 17 18
39 36 50 40 34 15 89 11 124 -8z"/>
<path d="M3420 6170 l0 -40 80 0 80 0 0 40 0 40 -80 0 -80 0 0 -40z"/>
<path d="M3838 5943 c-26 -44 -88 -99 -145 -131 l-53 -28 41 -85 c56 -117 140
-240 224 -328 100 -106 175 -157 175 -119 0 6 -23 45 -51 85 -61 89 -110 192
-138 293 -25 90 -45 261 -36 307 7 40 4 41 -17 6z"/>
<path d="M1270 5949 c-164 -12 -177 -15 -195 -50 -13 -24 -15 -77 -15 -324 2
-317 3 -325 53 -325 12 0 89 41 171 91 316 193 548 321 838 464 l227 112 -152
12 c-403 31 -679 38 -927 20z"/>
<path d="M2285 5798 c-525 -332 -704 -448 -916 -589 -130 -87 -249 -173 -263
-190 -99 -117 -143 -329 -133 -638 8 -251 51 -473 109 -569 35 -57 51 -44 165
143 612 997 893 1404 1242 1795 61 69 111 128 111 131 0 6 -104 20 -139 18 -9
0 -88 -46 -176 -101z"/>
<path d="M2652 5708 c-464 -597 -825 -1153 -1194 -1838 -205 -380 -508 -1008
-508 -1052 0 -11 14 -46 30 -77 151 -283 537 -431 1122 -431 l198 0 0 139 c0
371 46 990 106 1416 89 636 263 1304 472 1817 51 126 58 148 43 152 -18 6
-131 26 -142 26 -4 0 -61 -69 -127 -152z"/>
<path d="M3022 5681 c-204 -517 -337 -1328 -357 -2181 -3 -124 -7 -272 -9
-330 -8 -216 22 -952 39 -968 16 -16 178 -33 360 -39 166 -4 238 -2 342 11
383 49 673 174 873 375 89 89 141 166 188 274 42 98 78 258 59 270 -6 4 -63
37 -125 74 -590 349 -956 979 -1043 1798 -13 117 -17 474 -9 664 l5 114 -80
19 c-44 10 -106 25 -137 32 l-56 14 -50 -127z"/>
<path d="M3414 5683 c-10 -67 3 -349 21 -468 123 -798 564 -1500 1125 -1790
102 -52 282 -115 332 -115 79 0 211 101 295 225 89 132 155 291 193 460 29
129 32 314 7 395 -27 88 -25 87 -102 56 -425 -170 -910 -40 -1317 352 -132
128 -218 231 -299 362 -92 148 -167 329 -199 480 -18 84 -20 90 -35 90 -9 0
-16 -17 -21 -47z"/>
<path d="M21696 5670 l-47 -60 54 0 c43 0 58 5 75 23 12 13 22 27 22 31 0 10
-42 66 -50 66 -4 0 -28 -27 -54 -60z"/>
<path d="M3530 5701 c0 -84 130 -370 238 -521 76 -107 285 -323 379 -390 151
-108 315 -186 454 -215 83 -18 236 -20 311 -4 107 22 337 155 311 179 -4 5
-53 13 -109 19 -165 17 -221 40 -368 146 -46 34 -52 35 -135 35 -172 0 -350
44 -476 117 -132 77 -300 228 -374 336 -18 26 -62 108 -98 182 -65 134 -65
135 -99 135 -27 0 -34 -4 -34 -19z"/>
<path d="M12025 5569 c-213 -36 -378 -204 -446 -455 -18 -64 -22 -107 -22
-224 0 -129 3 -155 27 -233 47 -156 122 -272 227 -351 91 -69 155 -90 274 -90
114 -1 173 16 268 78 l57 36 0 160 0 161 -27 -27 c-16 -14 -50 -41 -78 -58
-155 -101 -300 -94 -403 18 -69 77 -94 145 -99 281 -8 168 26 275 115 361 60
58 87 69 177 69 69 0 88 -4 135 -29 30 -16 83 -58 118 -93 l62 -65 0 174 0
174 -55 36 c-97 64 -228 94 -330 77z"/>
<path d="M13405 5549 c-186 -66 -323 -243 -371 -483 -23 -112 -15 -324 16
-421 34 -107 89 -203 157 -275 130 -138 283 -187 448 -144 78 20 136 54 208
123 144 136 217 351 204 594 -8 136 -25 204 -82 323 -60 124 -142 209 -251
261 -71 34 -88 38 -174 40 -76 3 -107 -1 -155 -18z m231 -280 c191 -92 246
-447 102 -663 -37 -57 -86 -91 -149 -105 -62 -14 -112 -4 -168 33 -185 124
-209 505 -43 680 72 75 173 97 258 55z"/>
<path d="M24160 5550 c-191 -40 -359 -221 -421 -455 -30 -109 -32 -317 -5
-425 41 -168 143 -326 259 -403 157 -105 364 -103 525 3 l52 35 0 158 0 159
-42 -37 c-24 -20 -76 -53 -117 -73 -65 -32 -83 -36 -150 -37 -93 0 -138 21
-203 94 -64 71 -89 143 -96 270 -5 117 7 188 47 270 101 209 324 229 501 45
l60 -62 0 174 0 174 -53 35 c-102 68 -246 98 -357 75z"/>
<path d="M25120 5549 c-181 -31 -340 -189 -414 -409 -107 -325 0 -716 241
-876 152 -101 352 -100 501 3 276 189 362 657 184 998 -107 204 -312 318 -512
284z m165 -298 c80 -36 149 -136 175 -252 19 -84 9 -250 -19 -322 -58 -149
-168 -224 -289 -199 -96 20 -173 103 -212 229 -24 77 -27 231 -6 308 29 110
100 206 176 239 48 21 127 19 175 -3z"/>
<path d="M9560 4890 l0 -640 110 0 110 0 0 345 c0 270 3 345 13 344 6 0 145
-155 307 -344 274 -320 297 -344 328 -345 l32 0 0 640 0 641 -112 -3 -113 -3
0 -348 c0 -191 -3 -347 -7 -347 -3 0 -142 158 -309 350 -265 307 -306 350
-331 350 l-28 0 0 -640z"/>
<path d="M10798 4890 l-256 -640 124 0 c71 0 124 4 124 9 0 6 14 49 31 96 l31
85 215 -2 215 -3 32 -90 32 -90 127 -3 126 -3 -23 63 c-14 35 -107 275 -209
533 -101 259 -203 518 -227 578 -68 175 -43 214 -342 -533z m341 -40 c33 -102
61 -188 61 -193 0 -4 -61 -7 -135 -7 -103 0 -135 3 -135 13 0 10 73 229 126
376 9 26 21 -1 83 -189z"/>
<path d="M12620 4890 l0 -640 120 0 120 0 0 640 0 640 -120 0 -120 0 0 -640z"/>
<path d="M14186 5508 c-3 -13 -6 -301 -6 -640 l0 -618 115 0 115 0 2 351 3
351 300 -346 c280 -323 302 -346 332 -346 l33 0 0 635 0 635 -110 0 -110 0 0
-351 c0 -216 -4 -349 -9 -347 -6 2 -145 159 -311 351 -236 272 -306 347 -324
347 -16 0 -26 -7 -30 -22z"/>
<path d="M15677 5523 c-8 -12 -507 -1261 -507 -1267 0 -3 54 -6 119 -6 l119 0
33 95 34 95 215 0 215 0 34 -95 33 -95 125 0 c114 0 124 1 119 18 -3 9 -115
296 -249 637 -207 528 -246 620 -264 623 -12 2 -23 0 -26 -5z m87 -675 c35
-103 61 -189 58 -192 -8 -9 -272 -7 -272 1 0 25 135 392 141 386 5 -5 37 -92
73 -195z"/>
<path d="M16310 4890 l0 -640 325 0 325 0 0 135 0 135 -205 0 -205 0 0 505 0
505 -120 0 -120 0 0 -640z"/>
<path d="M17726 5514 c-3 -9 -6 -297 -6 -640 l0 -624 178 0 c299 1 405 33 537
164 127 126 179 265 179 481 0 150 -15 221 -70 334 -70 143 -214 251 -379 286
-47 10 -131 15 -251 15 -157 0 -183 -2 -188 -16z m467 -287 c66 -33 111 -81
145 -157 44 -95 41 -283 -5 -374 -22 -43 -93 -115 -133 -136 -46 -23 -144 -42
-195 -38 l-40 3 -3 369 -2 368 88 -4 c71 -3 100 -10 145 -31z"/>
<path d="M18770 4890 l0 -640 320 0 320 0 0 135 0 134 -202 0 -203 0 -3 131
-3 130 131 0 130 0 0 125 0 125 -130 0 -130 0 0 120 0 120 200 0 200 0 0 130
0 130 -315 0 -315 0 0 -640z"/>
<path d="M20256 5498 c-6 -19 -206 -1241 -206 -1255 0 -10 28 -13 105 -13
l104 0 6 33 c3 17 23 149 45 291 22 143 42 261 44 264 5 4 59 -108 191 -395
87 -190 89 -193 119 -193 31 0 32 1 131 228 165 378 157 361 166 332 4 -14 24
-135 44 -270 19 -135 38 -255 40 -267 5 -22 9 -23 120 -23 115 0 115 0 110 23
-5 23 -205 1243 -205 1253 0 3 -10 4 -22 2 -19 -3 -48 -61 -197 -395 -95 -216
-176 -393 -180 -393 -3 0 -89 178 -191 395 -142 303 -189 395 -203 395 -10 0
-19 -6 -21 -12z"/>
<path d="M21400 4870 l0 -640 320 0 320 0 0 130 0 130 -205 0 -205 0 0 135 0
135 125 0 125 0 0 125 0 125 -125 0 -125 0 0 120 0 120 203 2 202 3 3 128 3
127 -321 0 -320 0 0 -640z"/>
<path d="M22360 5210 c82 -165 150 -306 150 -314 0 -8 -79 -155 -176 -326 -97
-172 -178 -319 -181 -327 -4 -10 20 -13 125 -13 l130 0 118 215 c65 118 121
215 125 215 4 0 62 -97 130 -215 l124 -215 148 0 c81 0 147 2 147 5 0 2 -90
156 -200 341 -110 185 -200 340 -200 344 0 7 211 385 311 558 l18 32 -132 0
-132 0 -98 -180 c-55 -99 -102 -180 -105 -180 -4 0 -54 81 -112 180 l-104 180
-118 0 -118 0 150 -300z"/>
<path d="M23350 4870 l0 -640 120 0 120 0 0 640 0 640 -120 0 -120 0 0 -640z"/>
</g>
</svg>
